<?xml version="1.0" encoding="UTF-8" standalone="no"?>
<!DOCTYPE svg PUBLIC "-//W3C//DTD SVG 1.1//EN" "http://www.w3.org/Graphics/SVG/1.1/DTD/svg11.dtd">
<svg width="100%" height="100%" viewBox="0 0 1280 800" version="1.1" xmlns="http://www.w3.org/2000/svg" xmlns:xlink="http://www.w3.org/1999/xlink" xml:space="preserve" xmlns:serif="http://www.serif.com/" style="fill-rule:evenodd;clip-rule:evenodd;stroke-linecap:round;stroke-miterlimit:10;">
    <g transform="matrix(0.532422,0,0,0.32254,-20.2872,0)">
        <rect x="0" y="0" width="2480.32" height="2480.32" style="fill:white;"/>
    </g>
    <g id="Directories" transform="matrix(0.946386,0,0,0.946386,-415.985,76.8928)">
        <g transform="matrix(1,0,0,1,6.73968,-33.9125)">
            <text x="478.162px" y="56.351px" style="font-family:'ArialMT', 'Arial', sans-serif;font-size:11px;">conﬁg-growth</text>
        </g>
        <g transform="matrix(1,0,0,1,-19.1637,-35.3517)">
            <text x="912.481px" y="158.936px" style="font-family:'ArialMT', 'Arial', sans-serif;font-size:11px;">Import and</text>
            <text x="909.737px" y="170.296px" style="font-family:'ArialMT', 'Arial', sans-serif;font-size:11px;">Export Files</text>
        </g>
        <g transform="matrix(1,0,0,1,-16.1241,50.0184)">
            <text x="774.676px" y="30.858px" style="font-family:'ArialMT', 'Arial', sans-serif;font-size:11px;">Experiment/</text>
        </g>
        <g transform="matrix(1,0,0,1,-2.52482,53.2861)">
            <text x="626.383px" y="29.436px" style="font-family:'ArialMT', 'Arial', sans-serif;font-size:12px;">Data/</text>
        </g>
        <g transform="matrix(0.104227,0,0,0.104227,491.066,-42.9433)">
            <path d="M438.247,183.129L261.315,6.196L246.123,6.196L240.49,6.196L73.888,6.196L73.888,506L438.328,506L438.328,183.16L438.247,183.129ZM261.315,35.645L398.468,172.797L261.315,172.797L261.315,35.645ZM94.713,485.175L94.713,27.021L240.49,27.021L240.49,193.622L417.504,193.622L417.504,485.174L94.713,485.174L94.713,485.175Z" style="fill:rgb(55,64,77);fill-rule:nonzero;"/>
        </g>
        <g transform="matrix(0.0686626,1.57133e-18,-3.2584e-18,0.142383,824.386,-72.1591)">
            <path d="M460.244,1162.19L460.244,1128.75L660.079,1128.75L660.079,1097.7L759.126,1145.47L660.079,1193.23L660.079,1162.19L460.244,1162.19Z" style="fill:rgb(255,87,87);"/>
        </g>
        <g transform="matrix(-0.0686626,1.57133e-18,3.2584e-18,0.142383,908.111,-54.1859)">
            <path d="M460.244,1162.19L460.244,1128.75L660.079,1128.75L660.079,1097.7L759.126,1145.47L660.079,1193.23L660.079,1162.19L460.244,1162.19Z" style="fill:rgb(255,87,87);"/>
        </g>
        <g transform="matrix(-2.63305e-18,0.0686626,0.142383,5.46005e-18,354.664,-0.886989)">
            <path d="M460.244,1162.19L460.244,1128.75L660.079,1128.75L660.079,1097.7L759.126,1145.47L660.079,1193.23L660.079,1162.19L460.244,1162.19Z" style="fill:rgb(255,87,87);"/>
        </g>
        <g transform="matrix(0.104227,0,0,0.104227,893.139,57.3689)">
            <path d="M438.247,183.129L261.315,6.196L246.123,6.196L240.49,6.196L73.888,6.196L73.888,506L438.328,506L438.328,183.16L438.247,183.129ZM261.315,35.645L398.468,172.797L261.315,172.797L261.315,35.645ZM94.713,485.175L94.713,27.021L240.49,27.021L240.49,193.622L417.504,193.622L417.504,485.174L94.713,485.174L94.713,485.175Z" style="fill:rgb(55,64,77);fill-rule:nonzero;"/>
        </g>
        <g transform="matrix(0.336334,7.69692e-18,-5.91595e-18,0.258511,675.979,-193.642)">
            <rect x="499.895" y="1079.4" width="36.27" height="108.199" style="fill:rgb(0,192,12);"/>
        </g>
        <g transform="matrix(2.82914e-17,-0.336334,0.258511,2.17452e-17,224.579,231.396)">
            <rect x="499.895" y="1079.4" width="36.27" height="108.199" style="fill:rgb(0,192,12);"/>
        </g>
        <g transform="matrix(-0.348687,-4.27018e-17,3.10665e-17,-0.253677,1031.14,386.49)">
            <rect x="536.164" y="1102.23" width="915.095" height="59.13" style="fill:rgb(0,192,12);"/>
        </g>
        <g transform="matrix(-8.69906e-18,0.0473555,-0.253677,-4.65997e-17,804.711,38.1548)">
            <rect x="536.164" y="1102.23" width="915.095" height="59.13" style="fill:rgb(0,192,12);"/>
        </g>
        <g transform="matrix(1,0,0,1,-9.24127,-45.8504)">
            <text x="512.72px" y="39.501px" style="font-family:'ArialUnicodeMS', 'Arial Unicode MS', sans-serif;font-size:13.6px;">CSV</text>
        </g>
        <g transform="matrix(1.52401,0,0,1.52401,600.132,39.1029)">
            <path d="M46,15L46,11C46,9.896 45.104,9 44,9C44,9 19.352,9 18,9C16.531,9 15.516,5 14,5L3,5C1.896,5 1,5.896 1,7L1,44C1,45.104 1.896,46 3,46L42,46C43.104,46 44,45.104 44,44" style="fill:none;stroke:black;stroke-width:2px;"/>
        </g>
        <g transform="matrix(1.52401,0,0,1.52401,600.132,39.1029)">
            <path d="M1,44L6,17C6,15.896 6.896,15 8,15L47,15C48.104,15 49,15.896 49,17L44,44" style="fill:none;stroke:black;stroke-width:2px;"/>
        </g>
        <g transform="matrix(1.52401,0,0,1.52401,747.776,39.1029)">
            <path d="M46,15L46,11C46,9.896 45.104,9 44,9C44,9 19.352,9 18,9C16.531,9 15.516,5 14,5L3,5C1.896,5 1,5.896 1,7L1,44C1,45.104 1.896,46 3,46L42,46C43.104,46 44,45.104 44,44" style="fill:none;stroke:black;stroke-width:2px;"/>
        </g>
        <g transform="matrix(0.104227,0,0,0.104227,490.907,71.4388)">
            <path d="M438.247,183.129L261.315,6.196L246.123,6.196L240.49,6.196L73.888,6.196L73.888,506L438.328,506L438.328,183.16L438.247,183.129ZM261.315,35.645L398.468,172.797L261.315,172.797L261.315,35.645ZM94.713,485.175L94.713,27.021L240.49,27.021L240.49,193.622L417.504,193.622L417.504,485.174L94.713,485.174L94.713,485.175Z" style="fill:rgb(55,64,77);fill-rule:nonzero;"/>
        </g>
        <g transform="matrix(1.52401,0,0,1.52401,747.776,39.1029)">
            <path d="M1,44L6,17C6,15.896 6.896,15 8,15L47,15C48.104,15 49,15.896 49,17L44,44" style="fill:none;stroke:black;stroke-width:2px;"/>
        </g>
        <g transform="matrix(1,0,0,1,15.2642,-42.021)">
            <text x="460.743px" y="182.737px" style="font-family:'ArialMT', 'Arial', sans-serif;font-size:12px;">Growth-Pipe.py</text>
        </g>
    </g>
    <g id="Pipeline" transform="matrix(0.502689,0,0,0.502689,96.0067,125.464)">
        <g id="Config" transform="matrix(1,0,0,1,97.7872,-13.1981)">
            <g transform="matrix(1.02655,-0.00026104,0.000200639,0.789021,-107.404,237.501)">
                <rect x="499.895" y="1079.4" width="36.27" height="108.199" style="fill:rgb(184,184,184);"/>
            </g>
            <g transform="matrix(1.02655,-0.00026104,0.000200639,0.789021,1455.88,-671.905)">
                <rect x="499.895" y="1079.4" width="36.27" height="108.199" style="fill:rgb(184,184,184);"/>
            </g>
            <g transform="matrix(0.29539,0,0,0.493028,284.856,573.714)">
                <rect x="536.164" y="1102.23" width="915.095" height="59.13" style="fill:rgb(184,184,184);"/>
            </g>
            <g transform="matrix(0.383341,0,0,0.493028,1412.94,-335.691)">
                <rect x="536.164" y="1102.23" width="915.095" height="59.13" style="fill:rgb(184,184,184);"/>
            </g>
            <g transform="matrix(5.98946e-17,0.991906,-0.499364,3.07857e-17,1150.32,-324.085)">
                <rect x="536.164" y="1102.23" width="915.095" height="59.13" style="fill:rgb(184,184,184);"/>
            </g>
        </g>
        <g id="Parse">
            <g transform="matrix(0.29539,0,0,0.997532,652.67,2.72045)">
                <rect x="536.164" y="1102.23" width="915.095" height="59.13" style="fill:rgb(0,192,12);"/>
            </g>
            <g transform="matrix(6.28581e-17,-1.02655,0.789021,4.83136e-17,157.437,1447.61)">
                <rect x="499.895" y="1079.4" width="36.27" height="108.199" style="fill:rgb(0,192,12);"/>
            </g>
            <g transform="matrix(6.28581e-17,-1.02655,0.789021,4.83136e-17,-53.7414,1447.61)">
                <rect x="499.895" y="1079.4" width="36.27" height="108.199" style="fill:rgb(0,192,12);"/>
            </g>
            <g transform="matrix(1,0,0,0.472282,0,581.666)">
                <rect x="1022.23" y="746.962" width="59.132" height="355.267" style="fill:rgb(0,192,12);"/>
            </g>
            <g transform="matrix(1,0,0,0.472282,-211.178,581.666)">
                <rect x="1022.23" y="746.962" width="59.132" height="355.267" style="fill:rgb(0,192,12);"/>
            </g>
            <g transform="matrix(0.320815,0,0,0.988497,734.443,-1.72758)">
                <rect x="1081.36" y="1131.72" width="308.714" height="29.492" style="fill:rgb(184,184,184);"/>
            </g>
        </g>
        <g id="Stats" transform="matrix(1,0,0,1,368.71,0)">
            <g transform="matrix(0.29539,0,0,0.997532,652.67,2.72045)">
                <rect x="536.164" y="1102.23" width="915.095" height="59.13" style="fill:rgb(0,192,12);"/>
            </g>
            <g transform="matrix(6.28581e-17,-1.02655,0.789021,4.83136e-17,157.437,1447.61)">
                <rect x="499.895" y="1079.4" width="36.27" height="108.199" style="fill:rgb(0,192,12);"/>
            </g>
            <g transform="matrix(6.28581e-17,-1.02655,0.789021,4.83136e-17,-53.7414,1447.61)">
                <rect x="499.895" y="1079.4" width="36.27" height="108.199" style="fill:rgb(0,192,12);"/>
            </g>
            <g transform="matrix(1,0,0,0.472282,0,581.666)">
                <rect x="1022.23" y="746.962" width="59.132" height="355.267" style="fill:rgb(0,192,12);"/>
            </g>
            <g transform="matrix(1,0,0,0.472282,-211.178,581.666)">
                <rect x="1022.23" y="746.962" width="59.132" height="355.267" style="fill:rgb(0,192,12);"/>
            </g>
            <g transform="matrix(0.320815,0,0,0.988497,734.443,-1.72758)">
                <rect x="1081.36" y="1131.72" width="308.714" height="29.492" style="fill:rgb(184,184,184);"/>
            </g>
        </g>
        <g id="Graphs" transform="matrix(1,0,0,1,735.336,2.27374e-13)">
            <g transform="matrix(2.31595e-17,0.383541,-0.499364,3.07857e-17,1760.08,589.368)">
                <rect x="536.164" y="1102.23" width="915.095" height="59.13" style="fill:rgb(184,184,184);"/>
            </g>
            <g transform="matrix(3.39657e-17,0.562501,-0.499364,3.07857e-17,1760.42,-77.8989)">
                <rect x="536.164" y="1102.23" width="915.095" height="59.13" style="fill:rgb(184,184,184);"/>
            </g>
            <g transform="matrix(1.02655,0,-8.67362e-19,0.789021,554.828,-128.912)">
                <rect x="499.895" y="1079.4" width="36.27" height="108.199" style="fill:rgb(0,192,12);"/>
            </g>
            <g transform="matrix(1.02655,0,-8.67362e-19,0.789021,888.648,-128.912)">
                <rect x="499.895" y="1079.4" width="36.27" height="108.199" style="fill:rgb(0,192,12);"/>
            </g>
            <g transform="matrix(6.12323e-17,-1,0.83483,5.11186e-17,481.641,1817.24)">
                <rect x="1022.23" y="746.962" width="59.132" height="355.267" style="fill:rgb(0,192,12);"/>
            </g>
            <g transform="matrix(1.21527,0,0,0.988497,-509.17,-1.72758)">
                <rect x="1081.36" y="1131.72" width="308.714" height="29.492" style="fill:rgb(184,184,184);"/>
            </g>
        </g>
        <g id="Growth-Stats" serif:id="Growth Stats" transform="matrix(-1,-1.22465e-16,1.22465e-16,-1,2528.17,1286.43)">
            <g transform="matrix(0.29539,0,0,0.997532,652.67,-51.6855)">
                <rect x="536.164" y="1102.23" width="915.095" height="59.13" style="fill:rgb(0,192,12);"/>
            </g>
            <g transform="matrix(0.164776,1.11896e-33,2.6047e-32,0.997532,372.771,-51.6855)">
                <rect x="536.164" y="1102.23" width="915.095" height="59.13" style="fill:rgb(179,179,179);"/>
            </g>
            <g transform="matrix(0.171207,-1.2326e-32,3.98515e-33,0.997532,1738.69,-961.091)">
                <rect x="536.164" y="1102.23" width="915.095" height="59.13" style="fill:rgb(179,179,179);"/>
            </g>
            <g transform="matrix(6.28581e-17,-1.02655,0.789021,4.83136e-17,157.437,1393.27)">
                <rect x="499.895" y="1079.4" width="36.27" height="108.199" style="fill:rgb(0,192,12);"/>
            </g>
            <g transform="matrix(6.28581e-17,-1.02655,0.789021,4.83136e-17,-53.7414,1393.27)">
                <rect x="499.895" y="1079.4" width="36.27" height="108.199" style="fill:rgb(0,192,12);"/>
            </g>
            <g transform="matrix(1,0,0,0.472086,0,527.477)">
                <rect x="1022.23" y="746.962" width="59.132" height="355.267" style="fill:rgb(0,192,12);"/>
            </g>
            <g transform="matrix(1,-1.2326e-32,-1.5413e-32,0.472086,-211.178,527.477)">
                <rect x="1022.23" y="746.962" width="59.132" height="355.267" style="fill:rgb(0,192,12);"/>
            </g>
            <g transform="matrix(0.320815,0,0,0.988497,734.443,-55.9639)">
                <rect x="1081.36" y="1131.72" width="308.714" height="29.492" style="fill:rgb(184,184,184);"/>
            </g>
        </g>
        <g id="Growth" transform="matrix(-1,-1.22465e-16,1.22465e-16,-1,2167.13,1286.43)">
            <g transform="matrix(0.29539,0,0,0.997532,652.67,-51.6855)">
                <rect x="536.164" y="1102.23" width="915.095" height="59.13" style="fill:rgb(0,192,12);"/>
            </g>
            <g transform="matrix(6.28581e-17,-1.02655,0.789021,4.83136e-17,157.437,1393.27)">
                <rect x="499.895" y="1079.4" width="36.27" height="108.199" style="fill:rgb(0,192,12);"/>
            </g>
            <g transform="matrix(6.28581e-17,-1.02655,0.789021,4.83136e-17,-53.7414,1393.27)">
                <rect x="499.895" y="1079.4" width="36.27" height="108.199" style="fill:rgb(0,192,12);"/>
            </g>
            <g transform="matrix(1,0,0,0.472086,0,527.477)">
                <rect x="1022.23" y="746.962" width="59.132" height="355.267" style="fill:rgb(0,192,12);"/>
            </g>
            <g transform="matrix(1,0,0,0.472086,-211.178,527.477)">
                <rect x="1022.23" y="746.962" width="59.132" height="355.267" style="fill:rgb(0,192,12);"/>
            </g>
            <g transform="matrix(1.2571,-1.58174e-32,0,0.988497,-278.017,-55.9639)">
                <rect x="1081.36" y="1131.72" width="308.714" height="29.492" style="fill:rgb(184,184,184);"/>
            </g>
        </g>
    </g>
    <g id="File-Processing" serif:id="File Processing" transform="matrix(0.502689,0,0,0.502689,96.0067,125.464)">
        <g id="log" transform="matrix(1,0,0,1,-24.1273,2.24374)">
            <g transform="matrix(0.211242,0,0,0.211242,810.641,700.687)">
                <path d="M438.247,183.129L261.315,6.196L246.123,6.196L240.49,6.196L73.888,6.196L73.888,506L438.328,506L438.328,183.16L438.247,183.129ZM261.315,35.645L398.468,172.797L261.315,172.797L261.315,35.645ZM94.713,485.175L94.713,27.021L240.49,27.021L240.49,193.622L417.504,193.622L417.504,485.174L94.713,485.174L94.713,485.175Z" style="fill:rgb(55,64,77);fill-rule:nonzero;"/>
            </g>
            <g transform="matrix(0.646062,0,0,0.646062,645.924,79.4984)">
                <text x="296.493px" y="1080.84px" style="font-family:'ArialMT', 'Arial', sans-serif;font-size:42.566px;">DA<tspan x="352.464px " y="1080.84px ">T</tspan></text>
            </g>
            <g transform="matrix(0.646062,0,0,0.646062,654.88,138.525)">
                <text x="296.493px" y="1080.84px" style="font-family:'ArialMT', 'Arial', sans-serif;font-size:42.566px;">log</text>
            </g>
        </g>
        <g id="Arrows">
            <g transform="matrix(4.86484e-17,-0.408594,0.288574,-2.6563e-17,746.309,1083.92)">
                <path d="M460.244,1162.19L460.244,1128.75L725.392,1128.75L725.392,1097.7L759.126,1145.47L725.392,1193.23L725.392,1162.19L460.244,1162.19Z" style="fill:rgb(255,87,87);"/>
            </g>
            <g transform="matrix(1,0,0,1.14432,0.691135,-55.3643)">
                <rect x="1185.47" y="653.345" width="319.9" height="5.161" style="fill:rgb(255,87,87);"/>
            </g>
            <g transform="matrix(2.06414,0.564106,-0.566881,2.07429,-1234.69,-1557.46)">
                <path d="M1512.54,676.048L1512.54,673.243L1646.44,673.243L1646.44,670.639L1650.46,674.646L1646.44,678.652L1646.44,676.048L1512.54,676.048Z" style="fill:rgb(255,87,87);"/>
            </g>
            <g transform="matrix(0.609219,0.504938,-1.37222,1.65561,1709.91,-1223.3)">
                <path d="M1512.54,676.048L1512.54,673.243L1639.58,673.243L1639.58,670.639L1650.46,674.646L1639.58,678.652L1639.58,676.048L1512.54,676.048Z" style="fill:rgb(255,87,87);"/>
            </g>
            <g transform="matrix(2.62925,0.718546,-0.566881,2.07429,-2167.4,-1838.04)">
                <path d="M1512.54,676.048L1512.54,673.243L1647.3,673.243L1647.3,670.639L1650.46,674.646L1647.3,678.652L1647.3,676.048L1512.54,676.048Z" style="fill:rgb(255,87,87);"/>
            </g>
            <g transform="matrix(1.0867,0,0,1.10087,-155.162,-72.5562)">
                <path d="M1506.06,789.886L1506.06,784.253L1781.5,784.253L1781.5,779.023L1789.65,787.07L1781.5,795.116L1781.5,789.886L1506.06,789.886Z" style="fill:rgb(255,87,87);"/>
            </g>
            <g transform="matrix(1.90741,0,0,1,-1548.85,-0.437719)">
                <rect x="1705.21" y="631.959" width="3.096" height="27.543" style="fill:rgb(255,87,87);"/>
            </g>
            <g transform="matrix(1.39003e-18,0.408594,-0.288574,6.1903e-17,1515.51,585.693)">
                <path d="M460.244,1162.19L460.244,1128.75L725.392,1128.75L725.392,1097.7L759.126,1145.47L725.392,1193.23L725.392,1162.19L460.244,1162.19Z" style="fill:rgb(255,87,87);"/>
            </g>
            <g transform="matrix(4.89775e-17,-0.45047,0.288574,-2.01486e-17,788.309,785.522)">
                <path d="M460.244,1162.19L460.244,1128.75L728.528,1128.75L728.528,1097.7L759.126,1145.47L728.528,1193.23L728.528,1162.19L460.244,1162.19Z" style="fill:rgb(255,87,87);"/>
            </g>
            <g transform="matrix(-2.55635e-17,0.139161,-0.288574,-5.30101e-17,1171.17,788.326)">
                <path d="M460.244,1162.19L460.244,1128.75L660.079,1128.75L660.079,1097.7L759.126,1145.47L660.079,1193.23L660.079,1162.19L460.244,1162.19Z" style="fill:rgb(255,87,87);"/>
            </g>
            <g transform="matrix(4.26059e-17,-0.139161,0.288574,8.83502e-17,1089.6,959.916)">
                <path d="M460.244,1162.19L460.244,1128.75L660.079,1128.75L660.079,1097.7L759.126,1145.47L660.079,1193.23L660.079,1162.19L460.244,1162.19Z" style="fill:rgb(255,87,87);"/>
            </g>
            <g transform="matrix(0.139161,3.18467e-18,-6.60394e-18,0.288574,2110.15,437.26)">
                <path d="M460.244,1162.19L460.244,1128.75L660.079,1128.75L660.079,1097.7L759.126,1145.47L660.079,1193.23L660.079,1162.19L460.244,1162.19Z" style="fill:rgb(255,87,87);"/>
            </g>
            <g transform="matrix(0.139161,3.18467e-18,-6.60394e-18,0.288574,2040.26,-120.642)">
                <path d="M460.244,1162.19L460.244,1128.75L660.079,1128.75L660.079,1097.7L759.126,1145.47L660.079,1193.23L660.079,1162.19L460.244,1162.19Z" style="fill:rgb(255,87,87);"/>
            </g>
            <g transform="matrix(-2.55635e-17,0.139161,-0.288574,-5.30101e-17,1684.61,377.906)">
                <path d="M460.244,1162.19L460.244,1128.75L660.079,1128.75L660.079,1097.7L759.126,1145.47L660.079,1193.23L660.079,1162.19L460.244,1162.19Z" style="fill:rgb(255,87,87);"/>
            </g>
            <g transform="matrix(4.26059e-17,-0.139161,0.288574,8.83502e-17,1117.17,547.595)">
                <path d="M460.244,1162.19L460.244,1128.75L660.079,1128.75L660.079,1097.7L759.126,1145.47L660.079,1193.23L660.079,1162.19L460.244,1162.19Z" style="fill:rgb(255,87,87);"/>
            </g>
            <g transform="matrix(-2.55635e-17,0.139161,-0.288574,-5.30101e-17,2019.89,377.906)">
                <path d="M460.244,1162.19L460.244,1128.75L660.079,1128.75L660.079,1097.7L759.126,1145.47L660.079,1193.23L660.079,1162.19L460.244,1162.19Z" style="fill:rgb(255,87,87);"/>
            </g>
            <g transform="matrix(0.139161,3.18467e-18,-6.60394e-18,0.288574,397.238,787.009)">
                <path d="M460.244,1162.19L460.244,1128.75L660.079,1128.75L660.079,1097.7L759.126,1145.47L660.079,1193.23L660.079,1162.19L460.244,1162.19Z" style="fill:rgb(255,87,87);"/>
            </g>
        </g>
        <g id="config-growth" transform="matrix(1,0,0,1,-460.66,344.241)">
            <g transform="matrix(0.211242,0,0,0.211242,810.641,699.174)">
                <path d="M438.247,183.129L261.315,6.196L246.123,6.196L240.49,6.196L73.888,6.196L73.888,506L438.328,506L438.328,183.16L438.247,183.129ZM261.315,35.645L398.468,172.797L261.315,172.797L261.315,35.645ZM94.713,485.175L94.713,27.021L240.49,27.021L240.49,193.622L417.504,193.622L417.504,485.174L94.713,485.174L94.713,485.175Z" style="fill:rgb(55,64,77);fill-rule:nonzero;"/>
            </g>
            <g transform="matrix(0.551745,0,0,0.551745,672.212,177.499)">
                <text x="296.493px" y="1080.84px" style="font-family:'ArialMT', 'Arial', sans-serif;font-size:50px;">CSV</text>
            </g>
            <g transform="matrix(0.551745,0,0,0.551745,618.748,244.449)">
                <text x="296.493px" y="1080.84px" style="font-family:'ArialMT', 'Arial', sans-serif;font-size:50px;">conﬁg-growth</text>
            </g>
        </g>
        <g id="U-OD-Measurements" serif:id="U/OD Measurements" transform="matrix(1,0,0,1,85.3374,-86.8737)">
            <g transform="matrix(0.211242,0,0,0.211242,993.174,703.042)">
                <path d="M438.247,183.129L261.315,6.196L246.123,6.196L240.49,6.196L73.888,6.196L73.888,506L438.328,506L438.328,183.16L438.247,183.129ZM261.315,35.645L398.468,172.797L261.315,172.797L261.315,35.645ZM94.713,485.175L94.713,27.021L240.49,27.021L240.49,193.622L417.504,193.622L417.504,485.174L94.713,485.174L94.713,485.175Z" style="fill:rgb(55,64,77);fill-rule:nonzero;"/>
            </g>
            <g transform="matrix(0.551745,0,0,0.551745,854.745,181.367)">
                <text x="296.493px" y="1080.84px" style="font-family:'ArialMT', 'Arial', sans-serif;font-size:50px;">CSV</text>
            </g>
            <g transform="matrix(0.551745,0,0,0.551745,749.186,245.845)">
                <text x="296.493px" y="1080.84px" style="font-family:'ArialMT', 'Arial', sans-serif;font-size:50px;">U/OD Measurements</text>
            </g>
        </g>
        <g id="Growth-Rates" serif:id="Growth Rates" transform="matrix(1,0,0,1,359.063,-212.933)">
            <g transform="matrix(0.211242,0,0,0.211242,993.174,703.042)">
                <path d="M438.247,183.129L261.315,6.196L246.123,6.196L240.49,6.196L73.888,6.196L73.888,506L438.328,506L438.328,183.16L438.247,183.129ZM261.315,35.645L398.468,172.797L261.315,172.797L261.315,35.645ZM94.713,485.175L94.713,27.021L240.49,27.021L240.49,193.622L417.504,193.622L417.504,485.174L94.713,485.174L94.713,485.175Z" style="fill:rgb(55,64,77);fill-rule:nonzero;"/>
            </g>
            <g transform="matrix(0.551745,0,0,0.551745,854.745,181.367)">
                <text x="296.493px" y="1080.84px" style="font-family:'ArialMT', 'Arial', sans-serif;font-size:50px;">CSV</text>
            </g>
            <g transform="matrix(0.551745,0,0,0.551745,799.16,245.845)">
                <text x="296.493px" y="1080.84px" style="font-family:'ArialMT', 'Arial', sans-serif;font-size:50px;">Growth Rates</text>
            </g>
        </g>
        <g id="U-OD-Statistics" serif:id="U/OD Statistics" transform="matrix(1,0,0,1,372.88,0.306008)">
            <g transform="matrix(0.211242,0,0,0.211242,993.174,703.042)">
                <path d="M438.247,183.129L261.315,6.196L246.123,6.196L240.49,6.196L73.888,6.196L73.888,506L438.328,506L438.328,183.16L438.247,183.129ZM261.315,35.645L398.468,172.797L261.315,172.797L261.315,35.645ZM94.713,485.175L94.713,27.021L240.49,27.021L240.49,193.622L417.504,193.622L417.504,485.174L94.713,485.174L94.713,485.175Z" style="fill:rgb(55,64,77);fill-rule:nonzero;"/>
            </g>
            <g transform="matrix(0.551745,0,0,0.551745,854.745,181.367)">
                <text x="296.493px" y="1080.84px" style="font-family:'ArialMT', 'Arial', sans-serif;font-size:50px;">CSV</text>
            </g>
            <g transform="matrix(0.551745,0,0,0.551745,784.643,247.171)">
                <text x="296.493px" y="1080.84px" style="font-family:'ArialMT', 'Arial', sans-serif;font-size:50px;">U/OD Statistics</text>
            </g>
        </g>
        <g id="Growth-Statistics" serif:id="Growth Statistics" transform="matrix(1,0,0,1,644.495,-213.25)">
            <g transform="matrix(0.211242,0,0,0.211242,993.174,703.042)">
                <path d="M438.247,183.129L261.315,6.196L246.123,6.196L240.49,6.196L73.888,6.196L73.888,506L438.328,506L438.328,183.16L438.247,183.129ZM261.315,35.645L398.468,172.797L261.315,172.797L261.315,35.645ZM94.713,485.175L94.713,27.021L240.49,27.021L240.49,193.622L417.504,193.622L417.504,485.174L94.713,485.174L94.713,485.175Z" style="fill:rgb(55,64,77);fill-rule:nonzero;"/>
            </g>
            <g transform="matrix(0.551745,0,0,0.551745,854.745,181.367)">
                <text x="296.493px" y="1080.84px" style="font-family:'ArialMT', 'Arial', sans-serif;font-size:50px;">CSV</text>
            </g>
            <g transform="matrix(0.551745,0,0,0.551745,777.575,246.161)">
                <text x="296.493px" y="1080.84px" style="font-family:'ArialMT', 'Arial', sans-serif;font-size:50px;">Growth Statistics</text>
            </g>
        </g>
        <g id="Graphs1" serif:id="Graphs" transform="matrix(1,0,0,1,1218.76,-8.359)">
            <g transform="matrix(0.211242,0,0,0.211242,993.174,703.042)">
                <path d="M438.247,183.129L261.315,6.196L246.123,6.196L240.49,6.196L73.888,6.196L73.888,506L438.328,506L438.328,183.16L438.247,183.129ZM261.315,35.645L398.468,172.797L261.315,172.797L261.315,35.645ZM94.713,485.175L94.713,27.021L240.49,27.021L240.49,193.622L417.504,193.622L417.504,485.174L94.713,485.174L94.713,485.175Z" style="fill:rgb(55,64,77);fill-rule:nonzero;"/>
            </g>
            <g transform="matrix(0.551745,0,0,0.551745,854.745,181.367)">
                <text x="296.493px" y="1080.84px" style="font-family:'ArialMT', 'Arial', sans-serif;font-size:50px;">PNG</text>
            </g>
            <g transform="matrix(0.551745,0,0,0.551745,838.632,246.161)">
                <text x="296.493px" y="1080.84px" style="font-family:'ArialMT', 'Arial', sans-serif;font-size:50px;">Graphs</text>
            </g>
        </g>
        <g id="Log-Processes" serif:id="Log Processes" transform="matrix(1,0,0,1,1158.87,-567.054)">
            <g transform="matrix(0.211242,0,0,0.211242,993.174,703.042)">
                <path d="M438.247,183.129L261.315,6.196L246.123,6.196L240.49,6.196L73.888,6.196L73.888,506L438.328,506L438.328,183.16L438.247,183.129ZM261.315,35.645L398.468,172.797L261.315,172.797L261.315,35.645ZM94.713,485.175L94.713,27.021L240.49,27.021L240.49,193.622L417.504,193.622L417.504,485.174L94.713,485.174L94.713,485.175Z" style="fill:rgb(55,64,77);fill-rule:nonzero;"/>
            </g>
            <g transform="matrix(0.551745,0,0,0.551745,857.587,180.616)">
                <text x="296.493px" y="1080.84px" style="font-family:'ArialMT', 'Arial', sans-serif;font-size:50px;">TXT</text>
            </g>
            <g transform="matrix(0.551745,0,0,0.551745,791.967,246.533)">
                <text x="296.493px" y="1080.84px" style="font-family:'ArialMT', 'Arial', sans-serif;font-size:50px;">Log Processes</text>
            </g>
        </g>
    </g>
    <g id="Descriptions" transform="matrix(0.502689,0,0,0.502689,96.0067,125.464)">
        <g transform="matrix(2.13294,0,0,2.13294,231.081,-332.243)">
            <text x="135.008px" y="686.259px" style="font-family:'ArialUnicodeMS', 'Arial Unicode MS', sans-serif;font-size:23.5px;">--conﬁg</text>
        </g>
        <g transform="matrix(1,0,0,1,-32.1261,-40.1721)">
            <text x="899.387px" y="1180.18px" style="font-family:'ArialUnicodeMS', 'Arial Unicode MS', sans-serif;font-size:50px;">--parse</text>
        </g>
        <g transform="matrix(1,0,0,1,346.252,-31.261)">
            <text x="899.387px" y="1180.18px" style="font-family:'ArialUnicodeMS', 'Arial Unicode MS', sans-serif;font-size:50px;">--stats</text>
        </g>
        <g transform="matrix(1,0,0,1,591.081,-953.865)">
            <text x="899.387px" y="1180.18px" style="font-family:'ArialUnicodeMS', 'Arial Unicode MS', sans-serif;font-size:50px;">--r_stats</text>
        </g>
        <g transform="matrix(1,0,0,1,1009.78,-402.105)">
            <text x="899.387px" y="1180.18px" style="font-family:'ArialUnicodeMS', 'Arial Unicode MS', sans-serif;font-size:50px;">--graph</text>
        </g>
        <g transform="matrix(1,0,0,1,-71.3122,26.4923)">
            <text x="956.195px" y="1187.86px" style="font-family:'ArialUnicodeMS', 'Arial Unicode MS', sans-serif;font-size:33.333px;">Functions</text>
            <text x="919.151px" y="1221.19px" style="font-family:'ArialUnicodeMS', 'Arial Unicode MS', sans-serif;font-size:33.333px;">parse_u</text>
            <text x="919.151px" y="1254.53px" style="font-family:'ArialUnicodeMS', 'Arial Unicode MS', sans-serif;font-size:33.333px;">parse_od</text>
        </g>
        <g transform="matrix(1,0,0,1,206.191,-1097.03)">
            <text x="956.195px" y="1187.86px" style="font-family:'ArialUnicodeMS', 'Arial Unicode MS', sans-serif;font-size:33.333px;">Functions</text>
            <text x="919.151px" y="1221.19px" style="font-family:'ArialUnicodeMS', 'Arial Unicode MS', sans-serif;font-size:33.333px;">r_u_csv</text>
            <text x="919.151px" y="1254.53px" style="font-family:'ArialUnicodeMS', 'Arial Unicode MS', sans-serif;font-size:33.333px;">r_od_csv</text>
        </g>
        <g transform="matrix(1,0,0,1,299.184,26.4923)">
            <text x="956.195px" y="1187.86px" style="font-family:'ArialUnicodeMS', 'Arial Unicode MS', sans-serif;font-size:33.333px;">Function</text>
            <text x="919.151px" y="1221.19px" style="font-family:'ArialUnicodeMS', 'Arial Unicode MS', sans-serif;font-size:33.333px;">growth_rate_statistics</text>
        </g>
        <g transform="matrix(1,0,0,1,541.367,-1081.78)">
            <text x="956.195px" y="1187.86px" style="font-family:'ArialUnicodeMS', 'Arial Unicode MS', sans-serif;font-size:33.333px;">Function</text>
            <text x="919.151px" y="1221.19px" style="font-family:'ArialUnicodeMS', 'Arial Unicode MS', sans-serif;font-size:33.333px;">growth_rate_statistics</text>
        </g>
        <g transform="matrix(1,0,0,1,1051.77,-281.233)">
            <text x="956.195px" y="1187.86px" style="font-family:'ArialUnicodeMS', 'Arial Unicode MS', sans-serif;font-size:33.333px;">Function</text>
            <text x="919.151px" y="1221.19px" style="font-family:'ArialUnicodeMS', 'Arial Unicode MS', sans-serif;font-size:33.333px;">generate_graphs</text>
        </g>
        <g transform="matrix(1,0,0,1,-0.938467,4.41366)">
            <text x="1283.32px" y="699.64px" style="font-family:'ArialUnicodeMS', 'Arial Unicode MS', sans-serif;font-size:33.333px;">1</text>
        </g>
        <g transform="matrix(1,0,0,1,284.636,103.672)">
            <text x="1283.32px" y="699.64px" style="font-family:'ArialUnicodeMS', 'Arial Unicode MS', sans-serif;font-size:33.333px;">2</text>
        </g>
        <g transform="matrix(1,0,0,1,221.241,-19.9678)">
            <text x="1283.32px" y="699.64px" style="font-family:'ArialUnicodeMS', 'Arial Unicode MS', sans-serif;font-size:33.333px;">3</text>
        </g>
        <g transform="matrix(1,0,0,1,430.009,-19.9678)">
            <text x="1283.32px" y="699.64px" style="font-family:'ArialUnicodeMS', 'Arial Unicode MS', sans-serif;font-size:33.333px;">4</text>
        </g>
        <g transform="matrix(1,0,0,1,262.06,-953.865)">
            <text x="899.387px" y="1180.18px" style="font-family:'ArialUnicodeMS', 'Arial Unicode MS', sans-serif;font-size:50px;">--rate</text>
        </g>
        <g transform="matrix(2.13294,0,0,2.13294,334.32,-337.469)">
            <text x="757.312px" y="262.204px" style="font-family:'ArialUnicodeMS', 'Arial Unicode MS', sans-serif;font-size:23.5px;">--log</text>
        </g>
    </g>
    <g id="Title" transform="matrix(0.532422,0,0,0.532422,-12.1909,306.654)">
        <g transform="matrix(1,0,0,1,-217.603,21.0285)">
            <text x="303.334px" y="159.21px" style="font-family:'AndaleMono', 'Andale Mono', monospace;font-size:50px;">Growth-Pipe.py Pipeline</text>
            <rect x="303.334" y="164.215" width="690.112" height="2.49"/>
        </g>
        <g transform="matrix(1,0,0,1,-120.854,49.3428)">
            <text x="280.405px" y="195.606px" style="font-family:'AndaleMono', 'Andale Mono', monospace;font-size:33.333px;">use Python 3    -h for help</text>
            <text x="280.405px" y="262.272px" style="font-family:'AndaleMono', 'Andale Mono', monospace;font-size:33.333px;">$ python3 Growth-Pipe.py -h</text>
        </g>
    </g>
</svg>
