<?xml version="1.0" encoding="UTF-8" standalone="no"?>
<!DOCTYPE svg PUBLIC "-//W3C//DTD SVG 1.1//EN" "http://www.w3.org/Graphics/SVG/1.1/DTD/svg11.dtd">
<svg width="100%" height="100%" viewBox="0 0 1280 800" version="1.1" xmlns="http://www.w3.org/2000/svg" xmlns:xlink="http://www.w3.org/1999/xlink" xml:space="preserve" xmlns:serif="http://www.serif.com/" style="fill-rule:evenodd;clip-rule:evenodd;stroke-linejoin:round;stroke-miterlimit:1.41421;">
    <g transform="matrix(0.532422,0,0,0.32254,-20.2872,0)">
        <rect x="0" y="0" width="2480.32" height="2480.32" style="fill:white;"/>
    </g>
    <g id="Growth-Rate-Statistic-Graphs" serif:id="Growth Rate Statistic Graphs" transform="matrix(3.50024e-17,-0.571633,0.571633,3.50024e-17,327.563,657.284)">
        <g id="Graphs" transform="matrix(6.12323e-17,1,-1,6.12323e-17,1624.81,202.161)">
            <g transform="matrix(0.211242,0,0,0.211242,993.174,703.042)">
                <path d="M438.247,183.129L261.315,6.196L246.123,6.196L240.49,6.196L73.888,6.196L73.888,506L438.328,506L438.328,183.16L438.247,183.129ZM261.315,35.645L398.468,172.797L261.315,172.797L261.315,35.645ZM94.713,485.175L94.713,27.021L240.49,27.021L240.49,193.622L417.504,193.622L417.504,485.174L94.713,485.174L94.713,485.175Z" style="fill:rgb(55,64,77);fill-rule:nonzero;"/>
            </g>
            <g transform="matrix(0.551745,0,0,0.551745,854.745,181.367)">
                <text x="296.493px" y="1080.84px" style="font-family:'ArialMT', 'Arial', sans-serif;font-size:50px;">PNG</text>
            </g>
            <g transform="matrix(0.551745,0,0,0.551745,838.632,246.161)">
                <text x="296.493px" y="1080.84px" style="font-family:'ArialMT', 'Arial', sans-serif;font-size:50px;">Graphs</text>
            </g>
        </g>
        <g transform="matrix(1.07118e-16,1.74937,-1.74937,1.07118e-16,1110.98,-417.517)">
            <text x="778.906px" y="208.198px" style="font-family:'ArialMT', 'Arial', sans-serif;font-size:24px;">--graph</text>
            <text x="729.541px" y="232.983px" style="font-family:'ArialMT', 'Arial', sans-serif;font-size:24px;">[u_growth_stats,</text>
            <text x="726.201px" y="257.768px" style="font-family:'ArialMT', 'Arial', sans-serif;font-size:24px;">od_growth_stats]</text>
        </g>
        <g transform="matrix(4.26059e-17,0.139161,0.288574,-8.83502e-17,510.062,1075.41)">
            <path d="M460.244,1162.19L460.244,1128.75L660.079,1128.75L660.079,1097.7L759.126,1145.47L660.079,1193.23L660.079,1162.19L460.244,1162.19Z" style="fill:rgb(255,87,87);"/>
        </g>
        <g transform="matrix(6.28581e-17,-1.02655,0.789021,4.83136e-17,-53.7414,1652.63)">
            <rect x="499.895" y="1079.4" width="36.27" height="108.199" style="fill:rgb(0,192,12);"/>
        </g>
        <g transform="matrix(1,0,0,0.472282,-211.178,581.666)">
            <rect x="1022.23" y="746.962" width="59.132" height="355.267" style="fill:rgb(0,192,12);"/>
        </g>
        <g transform="matrix(6.28581e-17,-1.02655,0.789021,4.83136e-17,-53.7414,1447.61)">
            <rect x="499.895" y="1079.4" width="36.27" height="108.199" style="fill:rgb(0,192,12);"/>
        </g>
        <g transform="matrix(4.26059e-17,0.139161,0.288574,-8.83502e-17,510.062,790.227)">
            <path d="M460.244,1162.19L460.244,1128.75L660.079,1128.75L660.079,1097.7L759.126,1145.47L660.079,1193.23L660.079,1162.19L460.244,1162.19Z" style="fill:rgb(255,87,87);"/>
        </g>
    </g>
    <g id="Growth-Rate-Statistics" serif:id="Growth Rate Statistics" transform="matrix(0.404205,0.404205,0.404205,-0.404205,-84.9496,339.212)">
        <g id="Statistics" transform="matrix(0.707107,0.707107,0.707107,-0.707107,-438.69,1089.45)">
            <g transform="matrix(0.211242,0,0,0.211242,993.174,703.042)">
                <path d="M438.247,183.129L261.315,6.196L246.123,6.196L240.49,6.196L73.888,6.196L73.888,506L438.328,506L438.328,183.16L438.247,183.129ZM261.315,35.645L398.468,172.797L261.315,172.797L261.315,35.645ZM94.713,485.175L94.713,27.021L240.49,27.021L240.49,193.622L417.504,193.622L417.504,485.174L94.713,485.174L94.713,485.175Z" style="fill:rgb(55,64,77);fill-rule:nonzero;"/>
            </g>
            <g transform="matrix(0.551745,0,0,0.551745,854.745,181.367)">
                <text x="296.493px" y="1080.84px" style="font-family:'ArialMT', 'Arial', sans-serif;font-size:50px;">CSV</text>
            </g>
            <g transform="matrix(0.551745,0,0,0.551745,822.42,247.171)">
                <text x="296.493px" y="1080.84px" style="font-family:'ArialMT', 'Arial', sans-serif;font-size:50px;">Summary</text>
                <text x="303.427px" y="1132.48px" style="font-family:'ArialMT', 'Arial', sans-serif;font-size:50px;">Statistics</text>
            </g>
        </g>
        <g transform="matrix(1.23699,1.23699,1.23699,-1.23699,-173.852,648.299)">
            <text x="598.282px" y="274.125px" style="font-family:'ArialMT', 'Arial', sans-serif;font-size:24px;">--stats</text>
            <text x="575.583px" y="298.91px" style="font-family:'ArialMT', 'Arial', sans-serif;font-size:24px;">[u_growth,</text>
            <text x="572.243px" y="323.695px" style="font-family:'ArialMT', 'Arial', sans-serif;font-size:24px;">od_growth]</text>
        </g>
        <g transform="matrix(4.26059e-17,0.139161,0.288574,-8.83502e-17,510.062,1075.41)">
            <path d="M460.244,1162.19L460.244,1128.75L660.079,1128.75L660.079,1097.7L759.126,1145.47L660.079,1193.23L660.079,1162.19L460.244,1162.19Z" style="fill:rgb(255,87,87);"/>
        </g>
        <g transform="matrix(6.28581e-17,-1.02655,0.789021,4.83136e-17,-53.7414,1652.63)">
            <rect x="499.895" y="1079.4" width="36.27" height="108.199" style="fill:rgb(0,192,12);"/>
        </g>
        <g transform="matrix(1,0,0,0.472282,-211.178,581.666)">
            <rect x="1022.23" y="746.962" width="59.132" height="355.267" style="fill:rgb(0,192,12);"/>
        </g>
        <g transform="matrix(6.28581e-17,-1.02655,0.789021,4.83136e-17,-53.7414,1447.61)">
            <rect x="499.895" y="1079.4" width="36.27" height="108.199" style="fill:rgb(0,192,12);"/>
        </g>
        <g transform="matrix(4.26059e-17,0.139161,0.288574,-8.83502e-17,510.062,790.227)">
            <path d="M460.244,1162.19L460.244,1128.75L660.079,1128.75L660.079,1097.7L759.126,1145.47L660.079,1193.23L660.079,1162.19L460.244,1162.19Z" style="fill:rgb(255,87,87);"/>
        </g>
    </g>
    <g id="Growth-Rate-Graphs" serif:id="Growth Rate Graphs" transform="matrix(0.571633,0,0,-0.571633,65.4753,823.971)">
        <g transform="matrix(1.74937,0,-2.39394e-48,-1.74937,-1.90276,1423.19)">
            <text x="360.712px" y="216.824px" style="font-family:'ArialMT', 'Arial', sans-serif;font-size:24px;">--graph</text>
            <text x="343.362px" y="241.61px" style="font-family:'ArialMT', 'Arial', sans-serif;font-size:24px;">[u_growth,</text>
            <text x="340.022px" y="266.395px" style="font-family:'ArialMT', 'Arial', sans-serif;font-size:24px;">od_growth]</text>
        </g>
        <g id="Graphs1" serif:id="Graphs" transform="matrix(1,4.04301e-32,8.08602e-33,-1,-200.685,2035.64)">
            <g transform="matrix(0.211242,0,0,0.211242,993.174,703.042)">
                <path d="M438.247,183.129L261.315,6.196L246.123,6.196L240.49,6.196L73.888,6.196L73.888,506L438.328,506L438.328,183.16L438.247,183.129ZM261.315,35.645L398.468,172.797L261.315,172.797L261.315,35.645ZM94.713,485.175L94.713,27.021L240.49,27.021L240.49,193.622L417.504,193.622L417.504,485.174L94.713,485.174L94.713,485.175Z" style="fill:rgb(55,64,77);fill-rule:nonzero;"/>
            </g>
            <g transform="matrix(0.551745,0,0,0.551745,854.745,181.367)">
                <text x="296.493px" y="1080.84px" style="font-family:'ArialMT', 'Arial', sans-serif;font-size:50px;">PNG</text>
            </g>
            <g transform="matrix(0.551745,0,0,0.551745,838.632,246.161)">
                <text x="296.493px" y="1080.84px" style="font-family:'ArialMT', 'Arial', sans-serif;font-size:50px;">Graphs</text>
            </g>
        </g>
        <g transform="matrix(4.26059e-17,0.139161,0.288574,-8.83502e-17,510.062,1075.41)">
            <path d="M460.244,1162.19L460.244,1128.75L660.079,1128.75L660.079,1097.7L759.126,1145.47L660.079,1193.23L660.079,1162.19L460.244,1162.19Z" style="fill:rgb(255,87,87);"/>
        </g>
        <g transform="matrix(6.28581e-17,-1.02655,0.789021,4.83136e-17,-53.7414,1652.63)">
            <rect x="499.895" y="1079.4" width="36.27" height="108.199" style="fill:rgb(0,192,12);"/>
        </g>
        <g transform="matrix(1,0,0,0.472282,-211.178,581.666)">
            <rect x="1022.23" y="746.962" width="59.132" height="355.267" style="fill:rgb(0,192,12);"/>
        </g>
        <g transform="matrix(6.28581e-17,-1.02655,0.789021,4.83136e-17,-53.7414,1447.61)">
            <rect x="499.895" y="1079.4" width="36.27" height="108.199" style="fill:rgb(0,192,12);"/>
        </g>
        <g transform="matrix(4.26059e-17,0.139161,0.288574,-8.83502e-17,510.062,790.227)">
            <path d="M460.244,1162.19L460.244,1128.75L660.079,1128.75L660.079,1097.7L759.126,1145.47L660.079,1193.23L660.079,1162.19L460.244,1162.19Z" style="fill:rgb(255,87,87);"/>
        </g>
    </g>
    <g id="U-or-OD-Statistics-Graphs" serif:id="U or OD Statistics Graphs" transform="matrix(7.24683e-18,-0.571633,0.571633,7.24683e-18,8.82093,1118.18)">
        <g id="Graphs2" serif:id="Graphs" transform="matrix(1.26774e-17,1,-1,1.26774e-17,1604.61,191.738)">
            <g transform="matrix(0.211242,0,0,0.211242,993.174,703.042)">
                <path d="M438.247,183.129L261.315,6.196L246.123,6.196L240.49,6.196L73.888,6.196L73.888,506L438.328,506L438.328,183.16L438.247,183.129ZM261.315,35.645L398.468,172.797L261.315,172.797L261.315,35.645ZM94.713,485.175L94.713,27.021L240.49,27.021L240.49,193.622L417.504,193.622L417.504,485.174L94.713,485.174L94.713,485.175Z" style="fill:rgb(55,64,77);fill-rule:nonzero;"/>
            </g>
            <g transform="matrix(0.551745,0,0,0.551745,854.745,181.367)">
                <text x="296.493px" y="1080.84px" style="font-family:'ArialMT', 'Arial', sans-serif;font-size:50px;">PNG</text>
            </g>
            <g transform="matrix(0.551745,0,0,0.551745,838.632,246.161)">
                <text x="296.493px" y="1080.84px" style="font-family:'ArialMT', 'Arial', sans-serif;font-size:50px;">Graphs</text>
            </g>
        </g>
        <g transform="matrix(2.21776e-17,1.74937,-1.74937,2.21776e-17,1935.3,128.815)">
            <text x="468.76px" y="671.508px" style="font-family:'ArialMT', 'Arial', sans-serif;font-size:24px;">--graph</text>
            <text x="462.086px" y="696.293px" style="font-family:'ArialMT', 'Arial', sans-serif;font-size:24px;">[u_stats,</text>
            <text x="458.747px" y="721.078px" style="font-family:'ArialMT', 'Arial', sans-serif;font-size:24px;">od_stats]</text>
        </g>
        <g transform="matrix(4.26059e-17,0.139161,0.288574,-8.83502e-17,510.062,1075.41)">
            <path d="M460.244,1162.19L460.244,1128.75L660.079,1128.75L660.079,1097.7L759.126,1145.47L660.079,1193.23L660.079,1162.19L460.244,1162.19Z" style="fill:rgb(255,87,87);"/>
        </g>
        <g transform="matrix(6.28581e-17,-1.02655,0.789021,4.83136e-17,-53.7414,1652.63)">
            <rect x="499.895" y="1079.4" width="36.27" height="108.199" style="fill:rgb(0,192,12);"/>
        </g>
        <g transform="matrix(1,0,0,0.472282,-211.178,581.666)">
            <rect x="1022.23" y="746.962" width="59.132" height="355.267" style="fill:rgb(0,192,12);"/>
        </g>
        <g transform="matrix(6.28581e-17,-1.02655,0.789021,4.83136e-17,-53.7414,1447.61)">
            <rect x="499.895" y="1079.4" width="36.27" height="108.199" style="fill:rgb(0,192,12);"/>
        </g>
        <g transform="matrix(4.26059e-17,0.139161,0.288574,-8.83502e-17,510.062,790.227)">
            <path d="M460.244,1162.19L460.244,1128.75L660.079,1128.75L660.079,1097.7L759.126,1145.47L660.079,1193.23L660.079,1162.19L460.244,1162.19Z" style="fill:rgb(255,87,87);"/>
        </g>
    </g>
    <g id="U-or-OD-Statistics" serif:id="U or OD Statistics" transform="matrix(0.404205,-0.404205,0.404205,0.404205,-394.429,460.766)">
        <g id="Statistics1" serif:id="Statistics" transform="matrix(0.707107,0.707107,-0.707107,0.707107,673.504,-40.9082)">
            <g transform="matrix(0.211242,0,0,0.211242,993.174,703.042)">
                <path d="M438.247,183.129L261.315,6.196L246.123,6.196L240.49,6.196L73.888,6.196L73.888,506L438.328,506L438.328,183.16L438.247,183.129ZM261.315,35.645L398.468,172.797L261.315,172.797L261.315,35.645ZM94.713,485.175L94.713,27.021L240.49,27.021L240.49,193.622L417.504,193.622L417.504,485.174L94.713,485.174L94.713,485.175Z" style="fill:rgb(55,64,77);fill-rule:nonzero;"/>
            </g>
            <g transform="matrix(0.551745,0,0,0.551745,854.745,181.367)">
                <text x="296.493px" y="1080.84px" style="font-family:'ArialMT', 'Arial', sans-serif;font-size:50px;">CSV</text>
            </g>
            <g transform="matrix(0.551745,0,0,0.551745,822.42,247.171)">
                <text x="296.493px" y="1080.84px" style="font-family:'ArialMT', 'Arial', sans-serif;font-size:50px;">Summary</text>
                <text x="303.427px" y="1132.48px" style="font-family:'ArialMT', 'Arial', sans-serif;font-size:50px;">Statistics</text>
            </g>
        </g>
        <g transform="matrix(1.23699,1.23699,-1.23699,1.23699,936.213,29.2435)">
            <text x="309.504px" y="503.432px" style="font-family:'ArialMT', 'Arial', sans-serif;font-size:24px;">--stats</text>
            <text x="309.481px" y="528.217px" style="font-family:'ArialMT', 'Arial', sans-serif;font-size:24px;">[u, od]</text>
        </g>
        <g transform="matrix(4.26059e-17,0.139161,0.288574,-8.83502e-17,510.062,1075.41)">
            <path d="M460.244,1162.19L460.244,1128.75L660.079,1128.75L660.079,1097.7L759.126,1145.47L660.079,1193.23L660.079,1162.19L460.244,1162.19Z" style="fill:rgb(255,87,87);"/>
        </g>
        <g transform="matrix(6.28581e-17,-1.02655,0.789021,4.83136e-17,-53.7414,1652.63)">
            <rect x="499.895" y="1079.4" width="36.27" height="108.199" style="fill:rgb(0,192,12);"/>
        </g>
        <g transform="matrix(1,0,0,0.472282,-211.178,581.666)">
            <rect x="1022.23" y="746.962" width="59.132" height="355.267" style="fill:rgb(0,192,12);"/>
        </g>
        <g transform="matrix(6.28581e-17,-1.02655,0.789021,4.83136e-17,-53.7414,1447.61)">
            <rect x="499.895" y="1079.4" width="36.27" height="108.199" style="fill:rgb(0,192,12);"/>
        </g>
        <g transform="matrix(4.26059e-17,0.139161,0.288574,-8.83502e-17,510.062,790.227)">
            <path d="M460.244,1162.19L460.244,1128.75L660.079,1128.75L660.079,1097.7L759.126,1145.47L660.079,1193.23L660.079,1162.19L460.244,1162.19Z" style="fill:rgb(255,87,87);"/>
        </g>
    </g>
    <g id="U-or-OD-Graphs" serif:id="U or OD Graphs" transform="matrix(0.571633,0,0,0.571633,-233.073,-23.9941)">
        <g id="Graphs3" serif:id="Graphs" transform="matrix(1,-4.31254e-32,1.07814e-32,1,-213.835,494.844)">
            <g transform="matrix(0.211242,0,0,0.211242,993.174,703.042)">
                <path d="M438.247,183.129L261.315,6.196L246.123,6.196L240.49,6.196L73.888,6.196L73.888,506L438.328,506L438.328,183.16L438.247,183.129ZM261.315,35.645L398.468,172.797L261.315,172.797L261.315,35.645ZM94.713,485.175L94.713,27.021L240.49,27.021L240.49,193.622L417.504,193.622L417.504,485.174L94.713,485.174L94.713,485.175Z" style="fill:rgb(55,64,77);fill-rule:nonzero;"/>
            </g>
            <g transform="matrix(0.551745,0,0,0.551745,854.745,181.367)">
                <text x="296.493px" y="1080.84px" style="font-family:'ArialMT', 'Arial', sans-serif;font-size:50px;">PNG</text>
            </g>
            <g transform="matrix(0.551745,0,0,0.551745,838.632,246.161)">
                <text x="296.493px" y="1080.84px" style="font-family:'ArialMT', 'Arial', sans-serif;font-size:50px;">Graphs</text>
            </g>
        </g>
        <g transform="matrix(1.74937,0,0,1.74937,543.736,91.6635)">
            <text x="64.951px" y="524.496px" style="font-family:'ArialMT', 'Arial', sans-serif;font-size:24px;">--graph</text>
            <text x="70.277px" y="549.281px" style="font-family:'ArialMT', 'Arial', sans-serif;font-size:24px;">[u, od]</text>
        </g>
        <g transform="matrix(4.26059e-17,0.139161,0.288574,-8.83502e-17,510.062,1075.41)">
            <path d="M460.244,1162.19L460.244,1128.75L660.079,1128.75L660.079,1097.7L759.126,1145.47L660.079,1193.23L660.079,1162.19L460.244,1162.19Z" style="fill:rgb(255,87,87);"/>
        </g>
        <g transform="matrix(6.28581e-17,-1.02655,0.789021,4.83136e-17,-53.7414,1652.63)">
            <rect x="499.895" y="1079.4" width="36.27" height="108.199" style="fill:rgb(0,192,12);"/>
        </g>
        <g transform="matrix(1,0,0,0.472282,-211.178,581.666)">
            <rect x="1022.23" y="746.962" width="59.132" height="355.267" style="fill:rgb(0,192,12);"/>
        </g>
        <g transform="matrix(6.28581e-17,-1.02655,0.789021,4.83136e-17,-53.7414,1447.61)">
            <rect x="499.895" y="1079.4" width="36.27" height="108.199" style="fill:rgb(0,192,12);"/>
        </g>
        <g transform="matrix(4.26059e-17,0.139161,0.288574,-8.83502e-17,510.062,790.227)">
            <path d="M460.244,1162.19L460.244,1128.75L660.079,1128.75L660.079,1097.7L759.126,1145.47L660.079,1193.23L660.079,1162.19L460.244,1162.19Z" style="fill:rgb(255,87,87);"/>
        </g>
    </g>
    <g id="Graph-Block" serif:id="Graph Block" transform="matrix(3.50024e-17,-0.571633,0.571633,3.50024e-17,433.059,871.165)">
        <g id="Graphs4" serif:id="Graphs" transform="matrix(6.12323e-17,1,-1,6.12323e-17,1607.48,212.28)">
            <g transform="matrix(0.211242,0,0,0.211242,993.174,703.042)">
                <path d="M438.247,183.129L261.315,6.196L246.123,6.196L240.49,6.196L73.888,6.196L73.888,506L438.328,506L438.328,183.16L438.247,183.129ZM261.315,35.645L398.468,172.797L261.315,172.797L261.315,35.645ZM94.713,485.175L94.713,27.021L240.49,27.021L240.49,193.622L417.504,193.622L417.504,485.174L94.713,485.174L94.713,485.175Z" style="fill:rgb(55,64,77);fill-rule:nonzero;"/>
            </g>
            <g transform="matrix(0.551745,0,0,0.551745,854.745,181.367)">
                <text x="296.493px" y="1080.84px" style="font-family:'ArialMT', 'Arial', sans-serif;font-size:50px;">PNG</text>
            </g>
            <g transform="matrix(0.551745,0,0,0.551745,838.632,246.161)">
                <text x="296.493px" y="1080.84px" style="font-family:'ArialMT', 'Arial', sans-serif;font-size:50px;">Graphs</text>
            </g>
        </g>
        <g transform="matrix(1.07118e-16,1.74937,-1.74937,1.07118e-16,1488.09,-550.395)">
            <text x="858.051px" y="427.049px" style="font-family:'ArialMT', 'Arial', sans-serif;font-size:24px;">--graph</text>
            <text x="848.706px" y="451.834px" style="font-family:'ArialMT', 'Arial', sans-serif;font-size:24px;">[u_block,</text>
            <text x="845.366px" y="476.619px" style="font-family:'ArialMT', 'Arial', sans-serif;font-size:24px;">od_block]</text>
        </g>
        <g transform="matrix(4.26059e-17,0.139161,0.288574,-8.83502e-17,510.062,1075.41)">
            <path d="M460.244,1162.19L460.244,1128.75L660.079,1128.75L660.079,1097.7L759.126,1145.47L660.079,1193.23L660.079,1162.19L460.244,1162.19Z" style="fill:rgb(255,87,87);"/>
        </g>
        <g transform="matrix(6.28581e-17,-1.02655,0.789021,4.83136e-17,-53.7414,1652.63)">
            <rect x="499.895" y="1079.4" width="36.27" height="108.199" style="fill:rgb(0,192,12);"/>
        </g>
        <g transform="matrix(1,0,0,0.472282,-211.178,581.666)">
            <rect x="1022.23" y="746.962" width="59.132" height="355.267" style="fill:rgb(0,192,12);"/>
        </g>
        <g transform="matrix(6.28581e-17,-1.02655,0.789021,4.83136e-17,-53.7414,1447.61)">
            <rect x="499.895" y="1079.4" width="36.27" height="108.199" style="fill:rgb(0,192,12);"/>
        </g>
        <g transform="matrix(4.26059e-17,0.139161,0.288574,-8.83502e-17,510.062,790.227)">
            <path d="M460.244,1162.19L460.244,1128.75L660.079,1128.75L660.079,1097.7L759.126,1145.47L660.079,1193.23L660.079,1162.19L460.244,1162.19Z" style="fill:rgb(255,87,87);"/>
        </g>
    </g>
    <g id="Block" transform="matrix(3.50024e-17,-0.571633,0.571633,3.50024e-17,139.641,871.165)">
        <g id="Block-Statistics" serif:id="Block Statistics" transform="matrix(6.12323e-17,1,-1,6.12323e-17,1607.48,225.815)">
            <g transform="matrix(0.211242,0,0,0.211242,993.174,703.042)">
                <path d="M438.247,183.129L261.315,6.196L246.123,6.196L240.49,6.196L73.888,6.196L73.888,506L438.328,506L438.328,183.16L438.247,183.129ZM261.315,35.645L398.468,172.797L261.315,172.797L261.315,35.645ZM94.713,485.175L94.713,27.021L240.49,27.021L240.49,193.622L417.504,193.622L417.504,485.174L94.713,485.174L94.713,485.175Z" style="fill:rgb(55,64,77);fill-rule:nonzero;"/>
            </g>
            <g transform="matrix(0.551745,0,0,0.551745,854.745,181.367)">
                <text x="296.493px" y="1080.84px" style="font-family:'ArialMT', 'Arial', sans-serif;font-size:50px;">CSV</text>
            </g>
            <g transform="matrix(0.551745,0,0,0.551745,793.732,246.161)">
                <text x="296.493px" y="1080.84px" style="font-family:'ArialMT', 'Arial', sans-serif;font-size:50px;">Block Statistics</text>
            </g>
        </g>
        <g transform="matrix(1.07118e-16,1.74937,-1.74937,1.07118e-16,1465.4,-37.5672)">
            <text x="570.037px" y="417.762px" style="font-family:'ArialMT', 'Arial', sans-serif;font-size:24px;">--block</text>
            <text x="550.01px" y="442.547px" style="font-family:'ArialMT', 'Arial', sans-serif;font-size:24px;">[u_growth,</text>
            <text x="546.67px" y="467.333px" style="font-family:'ArialMT', 'Arial', sans-serif;font-size:24px;">od_growth]</text>
        </g>
        <g transform="matrix(4.26059e-17,0.139161,0.288574,-8.83502e-17,510.062,1075.41)">
            <path d="M460.244,1162.19L460.244,1128.75L660.079,1128.75L660.079,1097.7L759.126,1145.47L660.079,1193.23L660.079,1162.19L460.244,1162.19Z" style="fill:rgb(255,87,87);"/>
        </g>
        <g transform="matrix(6.28581e-17,-1.02655,0.789021,4.83136e-17,-53.7414,1652.63)">
            <rect x="499.895" y="1079.4" width="36.27" height="108.199" style="fill:rgb(0,192,12);"/>
        </g>
        <g transform="matrix(1,0,0,0.472282,-211.178,581.666)">
            <rect x="1022.23" y="746.962" width="59.132" height="355.267" style="fill:rgb(0,192,12);"/>
        </g>
        <g transform="matrix(6.28581e-17,-1.02655,0.789021,4.83136e-17,-53.7414,1447.61)">
            <rect x="499.895" y="1079.4" width="36.27" height="108.199" style="fill:rgb(0,192,12);"/>
        </g>
        <g transform="matrix(1.00715e-16,0.328961,0.288574,-8.83502e-17,510.062,646.145)">
            <path d="M460.244,1162.19L460.244,1128.75L717.225,1128.75L717.225,1097.7L759.126,1145.47L717.225,1193.23L717.225,1162.19L460.244,1162.19Z" style="fill:rgb(255,87,87);"/>
        </g>
        <g transform="matrix(0.296351,0.296351,-0.204052,0.204052,833.012,437.164)">
            <path d="M460.244,1162.19L460.244,1128.75L726.238,1128.75L726.238,1097.7L759.126,1145.47L726.238,1193.23L726.238,1162.19L460.244,1162.19Z" style="fill:rgb(255,87,87);"/>
        </g>
        <g id="Growth-Rates" serif:id="Growth Rates" transform="matrix(6.12323e-17,1,-1,6.12323e-17,1436.61,-281.527)">
            <g transform="matrix(0.211242,0,0,0.211242,993.174,703.042)">
                <path d="M438.247,183.129L261.315,6.196L246.123,6.196L240.49,6.196L73.888,6.196L73.888,506L438.328,506L438.328,183.16L438.247,183.129ZM261.315,35.645L398.468,172.797L261.315,172.797L261.315,35.645ZM94.713,485.175L94.713,27.021L240.49,27.021L240.49,193.622L417.504,193.622L417.504,485.174L94.713,485.174L94.713,485.175Z" style="fill:rgb(55,64,77);fill-rule:nonzero;"/>
            </g>
            <g transform="matrix(0.551745,0,0,0.551745,854.745,181.367)">
                <text x="296.493px" y="1080.84px" style="font-family:'ArialMT', 'Arial', sans-serif;font-size:50px;">CSV</text>
            </g>
            <g transform="matrix(0.551745,0,0,0.551745,830.232,248.393)">
                <text x="296.493px" y="1080.84px" style="font-family:'ArialMT', 'Arial', sans-serif;font-size:50px;">block log</text>
            </g>
        </g>
    </g>
    <g id="Growth" transform="matrix(3.50024e-17,-0.571633,0.571633,3.50024e-17,-175.414,869.351)">
        <g id="Growth-Rates1" serif:id="Growth Rates" transform="matrix(6.12323e-17,1,-1,6.12323e-17,1604.31,216.838)">
            <g transform="matrix(0.211242,0,0,0.211242,993.174,703.042)">
                <path d="M438.247,183.129L261.315,6.196L246.123,6.196L240.49,6.196L73.888,6.196L73.888,506L438.328,506L438.328,183.16L438.247,183.129ZM261.315,35.645L398.468,172.797L261.315,172.797L261.315,35.645ZM94.713,485.175L94.713,27.021L240.49,27.021L240.49,193.622L417.504,193.622L417.504,485.174L94.713,485.174L94.713,485.175Z" style="fill:rgb(55,64,77);fill-rule:nonzero;"/>
            </g>
            <g transform="matrix(0.551745,0,0,0.551745,854.745,181.367)">
                <text x="296.493px" y="1080.84px" style="font-family:'ArialMT', 'Arial', sans-serif;font-size:50px;">CSV</text>
            </g>
            <g transform="matrix(0.551745,0,0,0.551745,799.16,245.845)">
                <text x="296.493px" y="1080.84px" style="font-family:'ArialMT', 'Arial', sans-serif;font-size:50px;">Growth Rates</text>
            </g>
        </g>
        <g transform="matrix(1.07118e-16,1.74937,-1.74937,1.07118e-16,1476.19,456.241)">
            <text x="277.361px" y="421.349px" style="font-family:'ArialMT', 'Arial', sans-serif;font-size:24px;">--growth</text>
            <text x="288.014px" y="446.135px" style="font-family:'ArialMT', 'Arial', sans-serif;font-size:24px;">[u, od]</text>
        </g>
        <g transform="matrix(4.26059e-17,0.139161,0.288574,-8.83502e-17,510.062,1075.41)">
            <path d="M460.244,1162.19L460.244,1128.75L660.079,1128.75L660.079,1097.7L759.126,1145.47L660.079,1193.23L660.079,1162.19L460.244,1162.19Z" style="fill:rgb(255,87,87);"/>
        </g>
        <g transform="matrix(6.28581e-17,-1.02655,0.789021,4.83136e-17,-53.7414,1652.63)">
            <rect x="499.895" y="1079.4" width="36.27" height="108.199" style="fill:rgb(0,192,12);"/>
        </g>
        <g transform="matrix(1,0,0,0.472282,-211.178,581.666)">
            <rect x="1022.23" y="746.962" width="59.132" height="355.267" style="fill:rgb(0,192,12);"/>
        </g>
        <g transform="matrix(6.28581e-17,-1.02655,0.789021,4.83136e-17,-53.7414,1447.61)">
            <rect x="499.895" y="1079.4" width="36.27" height="108.199" style="fill:rgb(0,192,12);"/>
        </g>
        <g transform="matrix(4.26059e-17,0.139161,0.288574,-8.83502e-17,510.062,790.227)">
            <path d="M460.244,1162.19L460.244,1128.75L660.079,1128.75L660.079,1097.7L759.126,1145.47L660.079,1193.23L660.079,1162.19L460.244,1162.19Z" style="fill:rgb(255,87,87);"/>
        </g>
    </g>
    <g id="Parse" transform="matrix(0.571633,0,0,0.571633,-225.959,-335.675)">
        <g id="U-or-OD" serif:id="U or OD" transform="matrix(1,0,0,1,-206.724,495.007)">
            <g transform="matrix(0.211242,0,0,0.211242,993.174,703.042)">
                <path d="M438.247,183.129L261.315,6.196L246.123,6.196L240.49,6.196L73.888,6.196L73.888,506L438.328,506L438.328,183.16L438.247,183.129ZM261.315,35.645L398.468,172.797L261.315,172.797L261.315,35.645ZM94.713,485.175L94.713,27.021L240.49,27.021L240.49,193.622L417.504,193.622L417.504,485.174L94.713,485.174L94.713,485.175Z" style="fill:rgb(55,64,77);fill-rule:nonzero;"/>
            </g>
            <g transform="matrix(0.551745,0,0,0.551745,854.745,181.367)">
                <text x="296.493px" y="1080.84px" style="font-family:'ArialMT', 'Arial', sans-serif;font-size:50px;">CSV</text>
            </g>
            <g transform="matrix(0.551745,0,0,0.551745,781.581,254.572)">
                <text x="296.493px" y="1080.84px" style="font-family:'ArialMT', 'Arial', sans-serif;font-size:50px;">All U or OD Data</text>
            </g>
        </g>
        <g transform="matrix(1.74937,-2.15627e-32,0,1.74937,465.123,612.227)">
            <text x="113.444px" y="223.731px" style="font-family:'ArialMT', 'Arial', sans-serif;font-size:24px;">--parse</text>
            <text x="118.097px" y="248.516px" style="font-family:'ArialMT', 'Arial', sans-serif;font-size:24px;">[u, od,</text>
            <text x="118.759px" y="273.301px" style="font-family:'ArialMT', 'Arial', sans-serif;font-size:24px;">odlog]</text>
        </g>
        <g transform="matrix(4.26059e-17,0.139161,0.288574,-8.83502e-17,510.062,1075.41)">
            <path d="M460.244,1162.19L460.244,1128.75L660.079,1128.75L660.079,1097.7L759.126,1145.47L660.079,1193.23L660.079,1162.19L460.244,1162.19Z" style="fill:rgb(255,87,87);"/>
        </g>
        <g transform="matrix(6.28581e-17,-1.02655,0.789021,4.83136e-17,-53.7414,1652.63)">
            <rect x="499.895" y="1079.4" width="36.27" height="108.199" style="fill:rgb(0,192,12);"/>
        </g>
        <g transform="matrix(1,0,0,0.472282,-211.178,581.666)">
            <rect x="1022.23" y="746.962" width="59.132" height="355.267" style="fill:rgb(0,192,12);"/>
        </g>
        <g transform="matrix(6.28581e-17,-1.02655,0.789021,4.83136e-17,-53.7414,1447.61)">
            <rect x="499.895" y="1079.4" width="36.27" height="108.199" style="fill:rgb(0,192,12);"/>
        </g>
        <g transform="matrix(0.204485,0.204485,-0.204052,0.204052,908.698,503.596)">
            <path d="M460.244,1162.19L460.244,1128.75L711.462,1128.75L711.462,1097.7L759.126,1145.47L711.462,1193.23L711.462,1162.19L460.244,1162.19Z" style="fill:rgb(255,87,87);"/>
        </g>
        <g transform="matrix(-0.204485,0.204485,0.204052,0.204052,767.958,503.596)">
            <path d="M460.244,1162.19L460.244,1128.75L711.462,1128.75L711.462,1097.7L759.126,1145.47L711.462,1193.23L711.462,1162.19L460.244,1162.19Z" style="fill:rgb(255,87,87);"/>
        </g>
        <g id="log" transform="matrix(1,0,0,1,84.7432,-14.5684)">
            <g transform="matrix(0.211242,0,0,0.211242,810.641,700.687)">
                <path d="M438.247,183.129L261.315,6.196L246.123,6.196L240.49,6.196L73.888,6.196L73.888,506L438.328,506L438.328,183.16L438.247,183.129ZM261.315,35.645L398.468,172.797L261.315,172.797L261.315,35.645ZM94.713,485.175L94.713,27.021L240.49,27.021L240.49,193.622L417.504,193.622L417.504,485.174L94.713,485.174L94.713,485.175Z" style="fill:rgb(55,64,77);fill-rule:nonzero;"/>
            </g>
            <g transform="matrix(0.646062,0,0,0.646062,645.924,79.4984)">
                <text x="296.493px" y="1080.84px" style="font-family:'ArialMT', 'Arial', sans-serif;font-size:42.566px;">DA<tspan x="352.464px " y="1080.84px ">T</tspan></text>
            </g>
            <g transform="matrix(0.646062,0,0,0.646062,634.028,138.525)">
                <text x="296.493px" y="1080.84px" style="font-family:'ArialMT', 'Arial', sans-serif;font-size:42.566px;">full log</text>
            </g>
        </g>
        <g id="blank" transform="matrix(1,0,0,1,-105.305,-16.1362)">
            <g transform="matrix(0.211242,0,0,0.211242,810.641,700.687)">
                <path d="M438.247,183.129L261.315,6.196L246.123,6.196L240.49,6.196L73.888,6.196L73.888,506L438.328,506L438.328,183.16L438.247,183.129ZM261.315,35.645L398.468,172.797L261.315,172.797L261.315,35.645ZM94.713,485.175L94.713,27.021L240.49,27.021L240.49,193.622L417.504,193.622L417.504,485.174L94.713,485.174L94.713,485.175Z" style="fill:rgb(55,64,77);fill-rule:nonzero;"/>
            </g>
            <g transform="matrix(0.646062,0,0,0.646062,645.924,79.4984)">
                <text x="296.493px" y="1080.84px" style="font-family:'ArialMT', 'Arial', sans-serif;font-size:42.566px;">DA<tspan x="352.464px " y="1080.84px ">T</tspan></text>
            </g>
            <g transform="matrix(0.646062,0,0,0.646062,641.295,140.093)">
                <text x="296.493px" y="1080.84px" style="font-family:'ArialMT', 'Arial', sans-serif;font-size:42.566px;">blank</text>
            </g>
        </g>
        <g id="odlog" transform="matrix(1,0,0,1,-194.994,-16.1362)">
            <g transform="matrix(0.211242,0,0,0.211242,810.641,700.687)">
                <path d="M438.247,183.129L261.315,6.196L246.123,6.196L240.49,6.196L73.888,6.196L73.888,506L438.328,506L438.328,183.16L438.247,183.129ZM261.315,35.645L398.468,172.797L261.315,172.797L261.315,35.645ZM94.713,485.175L94.713,27.021L240.49,27.021L240.49,193.622L417.504,193.622L417.504,485.174L94.713,485.174L94.713,485.175Z" style="fill:rgb(55,64,77);fill-rule:nonzero;"/>
            </g>
            <g transform="matrix(0.646062,0,0,0.646062,645.924,79.4984)">
                <text x="296.493px" y="1080.84px" style="font-family:'ArialMT', 'Arial', sans-serif;font-size:42.566px;">DA<tspan x="352.464px " y="1080.84px ">T</tspan></text>
            </g>
            <g transform="matrix(0.646062,0,0,0.646062,641.295,140.093)">
                <text x="296.493px" y="1080.84px" style="font-family:'ArialMT', 'Arial', sans-serif;font-size:42.566px;">odlog</text>
            </g>
        </g>
    </g>
</svg>
